<?xml version="1.0" standalone="no"?>
<!DOCTYPE svg PUBLIC "-//W3C//DTD SVG 20010904//EN"
 "http://www.w3.org/TR/2001/REC-SVG-20010904/DTD/svg10.dtd">
<svg version="1.0" xmlns="http://www.w3.org/2000/svg"
 width="1502.000000pt" height="1580.000000pt" viewBox="0 0 1502.000000 1580.000000"
 preserveAspectRatio="xMidYMid meet">
<metadata>
Created by potrace 1.13, written by Peter Selinger 2001-2015
</metadata>
<g transform="translate(0.000000,1580.000000) scale(0.100000,-0.100000)"
fill="#000000" stroke="none">
<path d="M0 7900 l0 -7900 7510 0 7510 0 0 7900 0 7900 -7510 0 -7510 0 0
-7900z m4295 6835 c22 -13 51 -29 64 -35 47 -21 229 -188 501 -460 151 -152
293 -298 315 -325 22 -28 55 -68 75 -90 19 -22 53 -62 75 -89 22 -27 48 -56
58 -65 9 -8 17 -21 17 -28 0 -6 14 -27 31 -45 17 -18 55 -68 85 -110 31 -43
61 -84 67 -91 13 -14 28 -36 55 -81 9 -15 31 -45 47 -66 49 -61 129 -182 149
-225 11 -24 19 -63 20 -97 1 -48 -3 -60 -25 -82 -42 -42 -92 -58 -178 -55 -42
1 -85 -1 -96 -4 -42 -15 -214 -58 -300 -76 -72 -15 -126 -37 -271 -110 -100
-50 -190 -91 -200 -91 -23 0 -180 -36 -249 -57 -27 -8 -60 -24 -72 -36 -13
-11 -23 -16 -23 -11 0 5 -4 4 -8 -2 -16 -24 -150 -101 -207 -118 -107 -32
-338 -74 -439 -78 l-59 -3 -19 70 c-32 121 -40 344 -19 545 13 126 39 287 51
315 5 11 11 41 15 67 3 26 10 50 14 53 5 2 12 28 16 57 9 55 11 66 15 71 1 1
4 11 5 22 2 11 8 40 15 65 6 25 18 72 25 105 8 33 21 89 30 125 8 36 22 94 31
130 8 36 19 81 24 100 5 19 14 58 20 85 6 28 14 57 17 65 4 8 7 17 8 20 1 3 5
33 10 68 4 34 12 65 16 68 5 3 9 16 9 29 0 13 5 27 11 31 6 3 8 15 6 26 -3 11
3 35 14 55 11 19 17 38 14 43 -3 5 -1 11 4 14 4 3 11 20 15 37 7 37 45 124 93
213 18 33 60 76 75 76 7 0 31 -11 53 -25z m8656 -982 c16 -16 29 -31 29 -35 0
-4 5 -19 12 -35 6 -15 13 -35 14 -43 1 -8 7 -49 14 -89 12 -72 8 -360 -6 -421
-3 -14 -9 -97 -14 -185 -7 -135 -30 -386 -45 -500 -8 -53 -17 -353 -26 -834
-1 -36 -5 -72 -9 -80 -5 -9 -14 -43 -20 -76 -7 -33 -14 -66 -16 -73 -3 -10
-19 -5 -62 19 -104 58 -234 173 -314 277 -29 37 -62 75 -73 84 -42 33 -242
166 -291 193 -27 15 -56 33 -65 41 -8 8 -19 14 -23 14 -4 0 -33 17 -64 38
-144 97 -420 199 -626 230 -38 6 -73 15 -78 20 -6 6 -5 27 3 53 11 36 39 70
158 190 80 80 191 194 246 254 143 156 280 291 315 312 16 9 33 24 36 33 9 25
438 366 535 425 51 31 198 133 221 154 41 36 81 59 101 60 11 1 32 -11 48 -26z
m-4431 -1092 c71 -22 139 -55 144 -70 2 -9 16 -47 30 -85 22 -59 44 -171 44
-216 -1 -53 19 -445 23 -445 0 0 2 -27 3 -60 2 -33 7 -98 12 -145 4 -47 7 -88
6 -92 -1 -4 5 -76 13 -160 8 -84 17 -180 20 -213 3 -33 8 -89 11 -125 3 -36
17 -141 30 -235 13 -93 26 -195 29 -225 3 -30 10 -82 16 -115 6 -32 13 -84 15
-115 2 -30 8 -56 14 -58 5 -2 5 -13 -1 -29 -5 -13 -7 -28 -4 -33 3 -4 7 -45
10 -91 3 -46 8 -115 13 -154 4 -38 4 -92 1 -120 -13 -92 -17 -538 -6 -620 14
-109 21 -130 69 -202 15 -23 28 -46 28 -52 0 -6 4 -11 9 -11 12 0 61 -116 61
-145 0 -13 5 -27 10 -30 6 -4 10 -12 8 -18 -1 -7 4 -37 11 -67 7 -30 14 -82
17 -115 10 -128 12 -152 18 -215 11 -109 27 -212 41 -265 41 -152 157 -463
212 -567 8 -16 11 -28 8 -28 -3 0 5 -21 19 -47 13 -27 31 -64 39 -83 32 -76
80 -197 93 -233 8 -21 32 -76 54 -123 22 -47 40 -90 40 -94 0 -5 7 -21 15 -37
8 -15 30 -66 50 -113 20 -47 42 -98 50 -115 8 -16 34 -73 58 -125 24 -53 60
-121 80 -153 20 -32 37 -61 37 -65 0 -12 115 -138 168 -184 81 -70 217 -177
243 -190 14 -7 43 -27 64 -43 22 -17 85 -60 140 -95 127 -83 337 -228 368
-255 7 -6 35 -26 62 -45 28 -19 79 -56 115 -84 85 -65 124 -94 185 -139 28
-20 59 -43 70 -52 104 -80 148 -113 195 -147 30 -21 73 -52 95 -69 43 -31 93
-67 218 -154 42 -29 99 -60 125 -68 83 -26 324 -114 402 -147 41 -18 89 -38
105 -45 17 -7 77 -32 135 -55 58 -23 113 -46 122 -51 9 -4 58 -24 108 -44 50
-20 108 -45 128 -55 20 -11 42 -20 48 -20 6 0 45 -13 85 -29 41 -16 114 -44
162 -62 l89 -34 -6 -32 c-2 -18 -1 -35 5 -38 5 -3 6 -25 3 -48 -3 -23 -5 -58
-5 -77 0 -45 -37 -250 -49 -272 -6 -10 -10 -24 -10 -31 0 -15 -28 -110 -65
-222 -49 -149 -58 -182 -66 -240 -8 -61 -20 -125 -37 -203 -5 -23 -24 -65 -41
-93 -17 -28 -31 -54 -31 -59 0 -8 -34 -68 -85 -150 -12 -19 -39 -66 -60 -105
-21 -38 -46 -82 -57 -97 -10 -14 -18 -33 -18 -41 0 -9 -3 -17 -7 -19 -5 -1
-23 -32 -42 -68 -19 -36 -42 -74 -51 -85 -10 -11 -21 -30 -25 -42 -3 -13 -13
-23 -21 -23 -8 0 -14 -6 -14 -14 0 -8 -4 -16 -9 -18 -8 -2 -51 -50 -120 -133
-4 -5 -32 -30 -61 -55 -28 -25 -80 -72 -113 -105 -34 -33 -109 -103 -166 -155
-57 -52 -134 -124 -170 -160 -36 -36 -80 -74 -98 -85 -67 -41 -201 -136 -213
-150 -7 -8 -19 -15 -26 -15 -8 0 -67 -27 -131 -59 -65 -33 -147 -69 -183 -81
-36 -12 -69 -26 -75 -31 -5 -5 -15 -9 -23 -9 -8 0 -28 -6 -45 -14 -50 -22
-243 -83 -337 -106 -47 -11 -94 -24 -105 -29 -29 -13 -107 -35 -132 -37 -27
-3 -185 -41 -229 -54 -17 -6 -40 -10 -51 -10 -11 0 -54 -9 -96 -19 -42 -11
-93 -22 -114 -25 -82 -10 -120 -16 -163 -26 -57 -12 -215 -40 -255 -44 -16 -2
-64 -9 -105 -15 -41 -6 -97 -13 -124 -16 -26 -3 -89 -12 -140 -20 -50 -7 -138
-16 -196 -20 -58 -3 -125 -7 -150 -10 -25 -2 -101 -9 -170 -15 -69 -6 -168
-15 -220 -20 -52 -6 -131 -12 -175 -15 -44 -3 -105 -7 -135 -10 -30 -3 -111
-8 -180 -11 -69 -2 -172 -7 -230 -9 -58 -3 -148 -7 -200 -9 -175 -8 -714 -24
-780 -24 -231 3 -720 21 -745 28 -16 5 -104 11 -194 15 -90 3 -167 8 -171 10
-4 2 -56 7 -116 10 -60 3 -140 10 -179 15 -38 5 -113 12 -165 15 -52 3 -153
10 -225 16 -71 5 -164 11 -205 14 -41 2 -156 10 -255 16 -99 6 -184 15 -190
20 -5 5 -30 9 -56 9 -48 0 -136 15 -174 30 -11 4 -40 13 -65 20 -69 18 -181
62 -222 87 -21 13 -42 23 -47 23 -12 0 -67 30 -112 60 -16 11 -42 29 -59 40
-16 11 -31 20 -34 20 -9 0 -131 83 -134 92 -2 4 -8 8 -14 8 -5 0 -35 17 -66
39 -32 21 -102 68 -157 105 -156 103 -343 231 -416 284 -127 90 -344 298 -467
446 -31 38 -80 92 -107 120 -84 85 -233 255 -247 281 -64 122 -138 275 -138
284 0 11 -4 20 -33 79 -9 19 -17 41 -17 50 0 9 -7 36 -15 60 -16 44 -22 102
-30 247 -11 226 -20 324 -44 490 -5 33 -9 67 -9 75 1 8 -4 47 -11 85 -6 39
-13 99 -16 135 -5 68 -13 152 -21 208 -9 72 -22 252 -24 336 0 49 -3 92 -5 96
-7 11 18 245 27 257 7 9 62 13 197 13 344 1 675 9 726 19 27 6 70 12 95 15 25
2 97 21 160 41 115 36 163 50 425 119 149 39 160 43 360 110 126 43 221 82
247 103 19 16 279 163 287 163 14 0 268 79 331 103 124 48 221 90 406 178 45
22 85 39 90 39 4 0 15 6 23 14 9 8 45 29 81 48 36 19 88 49 115 66 28 18 59
36 70 41 12 5 27 16 34 25 7 9 18 16 24 16 6 0 20 9 31 19 12 11 46 36 77 58
78 52 224 176 282 237 27 28 92 96 146 151 54 55 107 112 118 127 11 15 51 62
89 104 59 65 132 161 169 222 22 37 72 109 100 147 17 22 61 101 99 175 37 74
72 142 76 150 20 34 59 128 66 155 4 16 13 40 20 54 8 14 14 30 14 35 0 8 28
73 51 118 5 10 9 24 9 32 0 7 8 31 17 52 9 22 17 41 18 44 0 3 5 14 11 25 6
11 19 47 30 80 10 33 21 62 25 65 3 3 14 32 24 65 10 33 27 75 37 93 10 18 17
36 16 40 0 4 2 14 5 22 6 14 34 91 97 272 14 43 30 81 33 85 4 3 7 12 7 19 0
7 5 25 12 41 6 15 12 33 13 38 0 6 4 17 8 25 7 17 76 229 101 309 9 29 16 62
16 72 0 10 5 21 10 24 6 3 10 17 10 30 0 13 4 26 8 29 5 3 14 38 21 78 7 40
16 80 19 88 10 28 33 105 47 160 43 172 75 314 75 335 0 13 5 27 10 30 6 3 10
21 10 40 0 19 4 36 8 39 5 3 9 28 10 57 0 29 6 57 11 62 6 6 11 30 11 53 0 24
7 76 16 116 8 40 20 100 25 133 6 33 16 101 24 150 8 50 22 122 30 160 9 39
18 84 20 100 3 17 8 46 11 65 4 19 7 38 6 42 -1 3 8 50 19 105 11 54 20 107
20 118 0 11 4 35 10 53 6 19 12 50 14 70 4 57 17 126 25 137 3 6 7 28 9 50 1
22 4 47 7 57 5 16 27 183 44 328 5 41 16 165 25 275 8 110 18 214 21 230 3 17
10 71 16 120 5 50 13 97 17 105 8 15 83 33 211 49 82 11 324 5 370 -8z m-3145
-3583 c204 -15 178 -12 315 -45 57 -14 127 -44 210 -88 44 -24 175 -158 214
-220 22 -33 49 -71 62 -85 42 -47 67 -109 69 -174 1 -33 5 -71 9 -83 4 -12 0
-47 -7 -77 -8 -30 -13 -57 -10 -60 6 -5 -36 -193 -48 -216 -11 -20 -23 -73
-20 -85 2 -8 -8 -49 -26 -105 -3 -8 -6 -29 -7 -46 -2 -17 -12 -51 -24 -76 -12
-24 -22 -49 -22 -54 0 -17 -81 -168 -112 -208 -54 -71 -166 -189 -273 -286
-47 -43 -72 -63 -164 -132 -20 -15 -86 -52 -146 -83 -100 -51 -119 -57 -205
-66 -52 -5 -102 -10 -110 -12 -31 -4 -209 14 -310 33 -134 24 -170 34 -210 54
-18 9 -38 16 -45 16 -41 0 -195 153 -281 280 -59 87 -144 245 -144 268 0 6 -3
12 -8 12 -16 0 -69 226 -81 350 -16 149 -3 436 20 465 4 6 6 20 5 30 -2 11 1
29 7 40 6 11 10 24 9 29 -2 4 4 19 13 32 8 13 15 30 15 39 0 19 69 146 87 160
7 6 21 26 30 46 37 75 199 188 350 245 71 27 448 108 467 101 6 -3 40 -2 76 2
102 10 145 9 295 -1z m5970 -198 c28 -12 68 -30 90 -40 22 -10 56 -25 75 -34
19 -8 69 -26 110 -40 106 -34 157 -54 220 -85 72 -37 190 -108 215 -132 11
-10 40 -35 65 -55 78 -65 210 -197 259 -259 55 -70 106 -165 116 -215 6 -35
20 -78 36 -115 17 -41 31 -220 23 -310 -4 -49 -8 -106 -10 -125 -4 -62 -16
-125 -26 -137 -5 -7 -7 -16 -5 -20 3 -5 -3 -26 -14 -47 -10 -22 -19 -48 -19
-57 0 -10 -4 -21 -10 -24 -5 -3 -10 -14 -10 -24 0 -28 -107 -192 -163 -249
-96 -98 -231 -163 -407 -195 -92 -17 -396 -39 -445 -32 -16 2 -86 7 -155 11
-69 4 -133 11 -142 15 -9 5 -28 9 -43 9 -40 0 -159 45 -225 86 -107 66 -246
211 -300 313 -15 29 -56 223 -64 306 -13 125 -17 171 -20 200 -2 17 -6 120
-10 230 -7 203 8 421 34 505 6 19 13 47 15 61 2 14 15 51 29 82 14 30 26 58
26 62 0 3 11 18 24 32 14 15 23 30 21 33 -3 4 17 31 42 59 67 75 242 160 433
210 59 15 179 6 235 -19z"/>
<path d="M7545 7029 c-16 -5 -46 -11 -65 -13 -115 -16 -198 -37 -221 -57 -12
-10 -27 -19 -33 -19 -6 0 -19 -8 -28 -17 -8 -10 -45 -45 -82 -78 -36 -32 -66
-65 -66 -72 0 -7 -4 -13 -10 -13 -5 0 -14 -19 -21 -42 -6 -24 -14 -47 -19 -53
-36 -47 -41 -203 -10 -325 74 -290 149 -410 341 -547 102 -72 116 -80 254
-143 190 -86 177 -75 177 -156 -1 -117 -14 -308 -23 -325 -4 -9 -10 -50 -13
-92 -2 -42 -7 -80 -10 -85 -3 -5 -9 -50 -12 -98 -4 -49 -11 -91 -15 -95 -5 -3
-11 -47 -14 -98 -3 -51 -9 -100 -14 -109 -5 -9 -12 -55 -15 -102 -3 -47 -10
-123 -16 -170 -5 -47 -14 -155 -20 -240 -12 -166 -23 -237 -46 -287 -8 -17
-14 -36 -14 -41 0 -6 -21 -45 -46 -88 -63 -107 -230 -268 -311 -302 -10 -4
-58 -31 -107 -60 -49 -30 -112 -63 -140 -74 -28 -11 -74 -30 -104 -44 -29 -13
-92 -33 -140 -45 -48 -11 -103 -24 -122 -30 -99 -26 -582 -50 -595 -30 -3 6
-23 11 -43 11 -123 1 -292 96 -339 191 -21 43 -63 157 -63 171 0 26 -41 130
-63 160 -53 72 -174 86 -310 36 -41 -16 -59 -57 -51 -121 6 -56 38 -162 60
-206 8 -14 14 -29 14 -33 0 -15 90 -154 114 -177 14 -14 26 -30 26 -36 0 -14
139 -135 156 -135 6 0 17 -7 24 -15 7 -9 27 -21 44 -29 17 -7 58 -26 91 -41
33 -15 67 -29 75 -31 8 -2 41 -10 74 -19 32 -9 71 -18 87 -20 16 -2 36 -6 46
-9 86 -26 575 -60 678 -47 39 5 79 7 90 5 11 -2 83 8 160 22 124 23 194 42
328 91 43 15 179 82 187 92 3 3 25 16 50 29 64 33 244 159 294 207 6 6 37 32
69 59 l58 49 24 -23 c14 -13 25 -28 25 -33 0 -5 17 -30 38 -56 45 -56 82 -108
82 -116 0 -3 19 -27 43 -53 104 -114 153 -162 204 -198 30 -22 61 -45 68 -52
34 -31 237 -122 335 -149 112 -31 323 -75 435 -89 11 -2 99 -4 195 -5 133 -2
198 2 270 16 185 35 379 125 467 217 105 109 151 173 198 276 16 34 32 62 36
62 3 0 14 26 23 58 10 31 21 65 27 74 5 10 9 31 9 47 0 17 5 33 11 36 6 4 8
13 5 21 -3 7 -1 16 3 18 12 8 23 159 15 212 -10 69 -51 111 -112 116 -60 5
-98 -8 -146 -52 -40 -36 -96 -113 -96 -131 0 -6 -8 -23 -19 -37 -10 -15 -26
-43 -35 -62 -9 -19 -28 -53 -41 -75 -14 -22 -30 -50 -36 -62 -7 -13 -15 -23
-19 -23 -4 0 -13 -13 -20 -30 -7 -16 -16 -30 -20 -30 -4 0 -19 -17 -32 -37
-44 -66 -109 -121 -194 -162 -46 -23 -90 -41 -98 -41 -8 0 -17 -4 -20 -9 -3
-5 -20 -11 -38 -14 -18 -3 -60 -12 -93 -20 -83 -21 -140 -23 -210 -8 -155 35
-323 116 -455 220 -113 90 -310 310 -310 347 0 4 -11 22 -25 40 -14 18 -25 38
-25 44 0 6 -9 29 -20 50 -11 22 -19 40 -16 40 2 0 0 17 -5 38 -22 87 -28 480
-15 917 13 422 15 468 25 538 5 40 15 152 22 251 l13 178 40 18 c23 9 54 20
70 24 51 13 313 148 332 172 6 8 15 14 19 14 5 0 17 7 27 17 10 9 26 21 37 27
108 64 221 182 291 306 27 49 50 96 50 103 0 7 4 17 9 22 10 12 37 102 50 170
15 82 8 183 -19 239 -24 54 -145 181 -196 206 -16 8 -37 22 -47 31 -10 10 -28
19 -40 22 -12 3 -53 14 -92 25 -169 49 -386 82 -625 97 -175 11 -641 14 -675
4z m456 -395 c167 -4 315 -7 329 -7 45 0 224 -28 235 -36 5 -4 30 -13 55 -20
62 -18 115 -58 142 -107 20 -38 21 -45 9 -85 -7 -24 -22 -54 -32 -68 -10 -13
-19 -30 -19 -37 0 -8 -3 -14 -7 -14 -5 0 -21 -23 -38 -51 -34 -58 -149 -179
-170 -179 -7 0 -15 -4 -17 -8 -1 -5 -32 -20 -68 -35 -159 -62 -469 -91 -575
-53 -54 19 -97 43 -134 76 -13 11 -28 20 -33 20 -5 0 -14 12 -21 28 -6 15 -14
29 -18 32 -23 19 -84 134 -108 205 -24 69 -29 100 -27 160 2 42 8 81 14 87 7
7 12 17 12 23 0 33 80 85 113 72 8 -3 20 -1 27 3 8 5 17 7 21 5 3 -3 143 -7
310 -11z"/>
<path d="M4677 4523 c-68 -10 -169 -101 -181 -163 -1 -3 -5 -10 -9 -17 -4 -7
-5 -36 -1 -65 7 -54 25 -83 76 -120 27 -19 29 -19 85 -1 113 34 175 86 232
191 23 43 23 44 5 85 -12 26 -34 50 -63 69 -44 27 -72 32 -144 21z"/>
<path d="M11320 4511 c-82 -26 -134 -68 -168 -136 -33 -66 -37 -119 -12 -159
33 -55 79 -77 158 -79 140 -4 258 94 269 224 5 54 4 58 -31 97 -20 22 -49 44
-64 49 -35 12 -120 14 -152 4z"/>
<path d="M3379 4467 c-83 -32 -116 -65 -139 -138 -26 -79 -25 -85 8 -114 58
-52 150 -56 228 -10 45 27 94 90 94 122 0 12 4 25 10 28 5 3 7 20 4 38 -13 79
-12 77 -54 77 -21 0 -42 5 -45 10 -9 15 -44 11 -106 -13z"/>
<path d="M12365 4320 c-88 -19 -174 -78 -209 -144 -35 -65 -37 -126 -6 -181
20 -37 65 -85 79 -85 104 5 209 23 240 42 56 35 110 97 146 168 32 64 33 66
16 96 -16 31 -55 67 -100 92 -30 17 -115 23 -166 12z"/>
<path d="M3806 3605 c-118 -58 -173 -185 -121 -284 40 -78 120 -86 230 -25 70
39 94 64 136 141 35 64 33 82 -11 135 -51 62 -148 76 -234 33z"/>
<path d="M11495 3508 c-50 -19 -118 -72 -138 -108 -26 -47 -29 -144 -5 -185
68 -117 262 -133 351 -29 64 75 82 210 35 262 -47 51 -179 84 -243 60z"/>
<path d="M4940 8543 c-72 -10 -170 -48 -170 -65 0 -5 -6 -8 -14 -8 -30 0 -166
-207 -166 -253 0 -9 -4 -19 -10 -22 -5 -3 -9 -16 -8 -28 0 -12 -4 -33 -9 -47
-6 -14 -11 -54 -13 -90 -3 -86 -5 -103 -12 -115 -12 -20 -1 -190 15 -227 8
-20 13 -39 10 -42 -4 -3 1 -14 9 -23 9 -10 23 -31 31 -48 17 -32 149 -175 162
-175 5 0 22 -10 39 -23 17 -12 49 -28 71 -36 22 -7 56 -20 75 -29 22 -11 69
-18 130 -20 l95 -4 55 39 c62 43 99 77 238 213 131 128 206 219 248 303 9 17
24 41 34 52 19 23 46 93 56 147 4 26 1 52 -11 80 -25 64 -48 112 -60 125 -5 6
-32 39 -60 73 -54 68 -119 114 -205 147 -85 33 -234 61 -360 68 -63 4 -122 8
-130 9 -8 2 -26 1 -40 -1z"/>
<path d="M11375 8339 c-44 -4 -94 -12 -111 -17 -47 -15 -144 -64 -144 -74 0
-4 -7 -8 -15 -8 -26 0 -149 -126 -179 -183 -23 -46 -28 -67 -27 -118 1 -52 25
-160 48 -219 3 -8 8 -24 10 -34 19 -102 133 -359 201 -453 12 -17 22 -35 22
-40 0 -17 74 -75 120 -95 38 -17 59 -19 140 -14 159 10 273 59 364 157 65 70
153 186 178 234 8 17 31 60 51 96 32 62 41 92 52 178 17 139 -117 343 -307
467 -36 24 -71 44 -76 44 -5 0 -15 7 -22 15 -7 8 -20 15 -29 15 -9 0 -29 7
-46 16 -16 8 -50 19 -75 24 -25 5 -52 11 -60 13 -8 2 -51 1 -95 -4z"/>
</g>
</svg>
